<?xml version="1.0" encoding="utf-8"?>
<!-- Generator: Adobe Illustrator 15.0.0, SVG Export Plug-In . SVG Version: 6.00 Build 0)  -->
<!DOCTYPE svg PUBLIC "-//W3C//DTD SVG 1.1 Tiny//EN" "http://www.w3.org/Graphics/SVG/1.1/DTD/svg11-tiny.dtd">
<svg version="1.1" baseProfile="tiny" id="Layer_1" xmlns="http://www.w3.org/2000/svg" xmlns:xlink="http://www.w3.org/1999/xlink"
	 x="0px" y="0px" width="28.346px" height="28.346px" viewBox="0 0 28.346 28.346" xml:space="preserve">
<path fill="#333333" d="M23.517,25.531c-0.147,0.444-0.65,0.808-1.118,0.808H8.43c-0.468,0-0.851-0.383-0.851-0.851V13.467
	c0-0.468,0.242-1.147,0.538-1.509l7.586-9.292c0.296-0.362,0.917-0.604,1.38-0.536c0,0,3.149,0.46,1.752,3.798
	c-0.508,1.214-2.977,5.935-2.977,5.935c-0.217,0.415-0.012,0.753,0.456,0.753h8.524c0.468,0,1.218,0.108,1.667,0.24
	c0,0,0.832,0.244,0.475,1.764C26.623,16.14,23.517,25.531,23.517,25.531z"/>
<path fill="#333333" d="M5.562,25.346c0,0.546-0.448,0.993-0.994,0.993H1.877c-0.546,0-0.994-0.447-0.994-0.993V13.198
	c0-0.546,0.447-0.994,0.994-0.994h2.691c0.546,0,0.994,0.448,0.994,0.994V25.346z"/>
</svg>
