<?xml version="1.0" encoding="utf-8"?>
<!-- Generator: Adobe Illustrator 15.0.0, SVG Export Plug-In . SVG Version: 6.00 Build 0)  -->
<!DOCTYPE svg PUBLIC "-//W3C//DTD SVG 1.1 Tiny//EN" "http://www.w3.org/Graphics/SVG/1.1/DTD/svg11-tiny.dtd">
<svg version="1.1" baseProfile="tiny" id="Layer_1" xmlns="http://www.w3.org/2000/svg" xmlns:xlink="http://www.w3.org/1999/xlink"
	 x="0px" y="0px" width="28.346px" height="28.346px" viewBox="0 0 28.346 28.346" xml:space="preserve">
<path fill="none" stroke="#333333" stroke-width="2" stroke-linecap="round" stroke-linejoin="round" d="M23.249,25.462H7.58V12.616
	l8.662-10.609c0,0,3.991,0.583,2.594,3.921c-0.508,1.214-3.371,6.688-3.371,6.688H25.69c0,0,1.648,0.484,1.291,2.003
	C26.623,16.14,23.249,25.462,23.249,25.462z"/>
<path fill="#333333" d="M5.146,25.346c0,0.546-0.448,0.993-0.994,0.993H1.46c-0.546,0-0.994-0.447-0.994-0.993V13.198
	c0-0.546,0.447-0.994,0.994-0.994h2.691c0.546,0,0.994,0.448,0.994,0.994V25.346z"/>
</svg>
