<?xml version="1.0" ?><!DOCTYPE svg  PUBLIC '-//W3C//DTD SVG 1.1//EN'  'http://www.w3.org/Graphics/SVG/1.1/DTD/svg11.dtd'><svg enable-background="new 0 0 91 91" height="91px" id="Layer_1" version="1.1" viewBox="0 0 91 91" width="91px" xml:space="preserve" xmlns="http://www.w3.org/2000/svg" xmlns:xlink="http://www.w3.org/1999/xlink"><g><path d="M46.252,22.97c-6.738,0-12.219,5.484-12.219,12.223c0,2.725,0.907,5.236,2.42,7.27c-2.98,2.084-4.777,5.191-4.777,8.521   v17.369h3.4V50.983c0-2.371,1.436-4.619,3.804-6.068c2.052,1.561,4.601,2.498,7.372,2.498c2.806,0,5.385-0.959,7.451-2.557   c2.427,1.449,3.897,3.719,3.897,6.127v17.369H61V50.983c0-3.383-1.839-6.516-4.89-8.598c1.479-2.021,2.363-4.504,2.363-7.193   C58.474,28.454,52.991,22.97,46.252,22.97z M46.252,44.015c-4.863,0-8.818-3.959-8.818-8.822c0-4.865,3.955-8.822,8.818-8.822   c4.864,0,8.822,3.957,8.822,8.822C55.074,40.056,51.116,44.015,46.252,44.015z"/><path d="M18.976,48.233c0-1.043,0.596-2.037,1.579-2.768c1.26,0.838,2.768,1.33,4.391,1.33c4.394,0,7.969-3.572,7.969-7.965   c0-4.395-3.575-7.969-7.969-7.969c-4.393,0-7.965,3.574-7.965,7.969c0,1.529,0.453,2.943,1.202,4.156   c-1.642,1.359-2.607,3.242-2.607,5.246v10.084h3.4V48.233z M24.945,34.263c2.52,0,4.568,2.049,4.568,4.568   c0,2.516-2.049,4.564-4.568,4.564c-2.518,0-4.565-2.049-4.565-4.564C20.38,36.312,22.428,34.263,24.945,34.263z"/><path d="M74.422,42.931c0.729-1.201,1.172-2.596,1.172-4.1c0-4.395-3.574-7.969-7.966-7.969c-4.394,0-7.969,3.574-7.969,7.969   c0,4.393,3.575,7.965,7.969,7.965c1.646,0,3.178-0.502,4.448-1.361c1.01,0.73,1.621,1.738,1.621,2.799v10.084h3.4V48.233   C77.098,46.194,76.106,44.288,74.422,42.931z M67.628,43.396c-2.52,0-4.569-2.049-4.569-4.564c0-2.52,2.05-4.568,4.569-4.568   c2.518,0,4.565,2.049,4.565,4.568C72.193,41.347,70.146,43.396,67.628,43.396z"/></g></svg>