<svg width="78" height="16" viewBox="0 0 78 16" fill="none" xmlns="http://www.w3.org/2000/svg">
<path d="M13.1475 6.0957C13.1475 8.24414 12.2308 9.46875 10.3975 9.76953L13.2979 16H10.8594L8.00195 9.84473H3.17871V16H0.976562V0.595703H9.40918C11.9014 0.595703 13.1475 1.84538 13.1475 4.34473V6.0957ZM3.17871 7.64258H9.29102C9.87826 7.64258 10.3008 7.51367 10.5586 7.25586C10.8164 6.99805 10.9453 6.57552 10.9453 5.98828V4.45215C10.9453 3.86491 10.8164 3.44238 10.5586 3.18457C10.3008 2.92676 9.87826 2.79785 9.29102 2.79785H3.17871V7.64258ZM25.4159 11.3594H17.8427V13.8838H25.4159V16H17.8427C17.5562 16 17.2841 15.9463 17.0262 15.8389C16.7684 15.7243 16.5429 15.5739 16.3495 15.3877C16.1633 15.1943 16.0129 14.9688 15.8983 14.7109C15.7909 14.4531 15.7372 14.1774 15.7372 13.8838V6.67578C15.7372 6.38216 15.7909 6.10645 15.8983 5.84863C16.0129 5.59082 16.1633 5.36882 16.3495 5.18262C16.5429 4.98926 16.7684 4.83887 17.0262 4.73145C17.2841 4.61686 17.5562 4.55957 17.8427 4.55957H23.2997C23.5933 4.55957 23.869 4.61686 24.1268 4.73145C24.3846 4.83887 24.6067 4.98926 24.7929 5.18262C24.9862 5.36882 25.1366 5.59082 25.244 5.84863C25.3586 6.10645 25.4159 6.38216 25.4159 6.67578V11.3594ZM17.8427 6.67578V9.24316H23.2997V6.67578H17.8427Z" fill="#71BD8C"/>
<path d="M28.0701 12.7881H31.282V16H28.0701V12.7881ZM28.0701 4.55957H31.282V7.77148H28.0701V4.55957ZM33.7106 4.55957H43.1745V5.12891L37.0836 13.8838H43.1745V16H33.4957V15.4307L39.5866 6.67578H33.7106V4.55957ZM55.0669 11.3594H47.4937V13.8838H55.0669V16H47.4937C47.2072 16 46.9351 15.9463 46.6773 15.8389C46.4195 15.7243 46.1939 15.5739 46.0005 15.3877C45.8143 15.1943 45.6639 14.9688 45.5493 14.7109C45.4419 14.4531 45.3882 14.1774 45.3882 13.8838V6.67578C45.3882 6.38216 45.4419 6.10645 45.5493 5.84863C45.6639 5.59082 45.8143 5.36882 46.0005 5.18262C46.1939 4.98926 46.4195 4.83887 46.6773 4.73145C46.9351 4.61686 47.2072 4.55957 47.4937 4.55957H52.9507C53.2443 4.55957 53.52 4.61686 53.7779 4.73145C54.0357 4.83887 54.2577 4.98926 54.4439 5.18262C54.6372 5.36882 54.7876 5.59082 54.895 5.84863C55.0096 6.10645 55.0669 6.38216 55.0669 6.67578V11.3594ZM47.4937 6.67578V9.24316H52.9507V6.67578H47.4937ZM59.8266 6.67578V16H57.7211V4.55957H59.8266V6.5791C59.8409 6.2998 59.9053 6.03841 60.0199 5.79492C60.1345 5.54427 60.2849 5.32943 60.4711 5.15039C60.6645 4.96419 60.8865 4.82096 61.1371 4.7207C61.3878 4.61328 61.6563 4.55957 61.9428 4.55957H64.1879C64.4815 4.55957 64.7536 4.61686 65.0043 4.73145C65.2621 4.83887 65.4877 4.98926 65.6811 5.18262C65.8744 5.36882 66.0248 5.59082 66.1322 5.84863C66.2468 6.10645 66.3041 6.38216 66.3041 6.67578V8.60938H64.1879V6.67578H59.8266ZM77.9495 13.8838C77.9495 14.1774 77.8922 14.4531 77.7776 14.7109C77.6702 14.9688 77.5198 15.1943 77.3264 15.3877C77.1402 15.5739 76.9182 15.7243 76.6604 15.8389C76.4098 15.9463 76.1376 16 75.844 16H70.1614C69.8749 16 69.6028 15.9463 69.345 15.8389C69.0872 15.7243 68.8616 15.5739 68.6682 15.3877C68.482 15.1943 68.3317 14.9688 68.2171 14.7109C68.1096 14.4531 68.0559 14.1774 68.0559 13.8838V6.67578C68.0559 6.38216 68.1096 6.10645 68.2171 5.84863C68.3317 5.59082 68.482 5.36882 68.6682 5.18262C68.8616 4.98926 69.0872 4.83887 69.345 4.73145C69.6028 4.61686 69.8749 4.55957 70.1614 4.55957H75.844C76.1376 4.55957 76.4098 4.61686 76.6604 4.73145C76.9182 4.83887 77.1402 4.98926 77.3264 5.18262C77.5198 5.36882 77.6702 5.59082 77.7776 5.84863C77.8922 6.10645 77.9495 6.38216 77.9495 6.67578V13.8838ZM70.1614 6.67578V13.8838H75.844V6.67578H70.1614Z" fill="#2C2C2C"/>
</svg>
