<svg width="111" height="29" viewBox="0 0 111 29" fill="none" xmlns="http://www.w3.org/2000/svg">
<path d="M44.1475 14.0957C44.1475 16.2441 43.2308 17.4688 41.3975 17.7695L44.2979 24H41.8594L39.002 17.8447H34.1787V24H31.9766V8.5957H40.4092C42.9014 8.5957 44.1475 9.84538 44.1475 12.3447V14.0957ZM34.1787 15.6426H40.291C40.8783 15.6426 41.3008 15.5137 41.5586 15.2559C41.8164 14.998 41.9453 14.5755 41.9453 13.9883V12.4521C41.9453 11.8649 41.8164 11.4424 41.5586 11.1846C41.3008 10.9268 40.8783 10.7979 40.291 10.7979H34.1787V15.6426ZM56.4159 19.3594H48.8427V21.8838H56.4159V24H48.8427C48.5562 24 48.2841 23.9463 48.0262 23.8389C47.7684 23.7243 47.5429 23.5739 47.3495 23.3877C47.1633 23.1943 47.0129 22.9688 46.8983 22.7109C46.7909 22.4531 46.7372 22.1774 46.7372 21.8838V14.6758C46.7372 14.3822 46.7909 14.1064 46.8983 13.8486C47.0129 13.5908 47.1633 13.3688 47.3495 13.1826C47.5429 12.9893 47.7684 12.8389 48.0262 12.7314C48.2841 12.6169 48.5562 12.5596 48.8427 12.5596H54.2997C54.5933 12.5596 54.869 12.6169 55.1268 12.7314C55.3846 12.8389 55.6067 12.9893 55.7929 13.1826C55.9862 13.3688 56.1366 13.5908 56.244 13.8486C56.3586 14.1064 56.4159 14.3822 56.4159 14.6758V19.3594ZM48.8427 14.6758V17.2432H54.2997V14.6758H48.8427Z" fill="#71BD8C"/>
<path d="M59.0701 20.7881H62.282V24H59.0701V20.7881ZM59.0701 12.5596H62.282V15.7715H59.0701V12.5596ZM64.7106 12.5596H74.1745V13.1289L68.0836 21.8838H74.1745V24H64.4957V23.4307L70.5866 14.6758H64.7106V12.5596ZM86.0669 19.3594H78.4937V21.8838H86.0669V24H78.4937C78.2072 24 77.9351 23.9463 77.6773 23.8389C77.4195 23.7243 77.1939 23.5739 77.0005 23.3877C76.8143 23.1943 76.6639 22.9688 76.5493 22.7109C76.4419 22.4531 76.3882 22.1774 76.3882 21.8838V14.6758C76.3882 14.3822 76.4419 14.1064 76.5493 13.8486C76.6639 13.5908 76.8143 13.3688 77.0005 13.1826C77.1939 12.9893 77.4195 12.8389 77.6773 12.7314C77.9351 12.6169 78.2072 12.5596 78.4937 12.5596H83.9507C84.2443 12.5596 84.52 12.6169 84.7779 12.7314C85.0357 12.8389 85.2577 12.9893 85.4439 13.1826C85.6372 13.3688 85.7876 13.5908 85.895 13.8486C86.0096 14.1064 86.0669 14.3822 86.0669 14.6758V19.3594ZM78.4937 14.6758V17.2432H83.9507V14.6758H78.4937ZM90.8266 14.6758V24H88.7211V12.5596H90.8266V14.5791C90.8409 14.2998 90.9053 14.0384 91.0199 13.7949C91.1345 13.5443 91.2849 13.3294 91.4711 13.1504C91.6645 12.9642 91.8865 12.821 92.1371 12.7207C92.3878 12.6133 92.6563 12.5596 92.9428 12.5596H95.1879C95.4815 12.5596 95.7536 12.6169 96.0043 12.7314C96.2621 12.8389 96.4877 12.9893 96.6811 13.1826C96.8744 13.3688 97.0248 13.5908 97.1322 13.8486C97.2468 14.1064 97.3041 14.3822 97.3041 14.6758V16.6094H95.1879V14.6758H90.8266ZM108.949 21.8838C108.949 22.1774 108.892 22.4531 108.778 22.7109C108.67 22.9688 108.52 23.1943 108.326 23.3877C108.14 23.5739 107.918 23.7243 107.66 23.8389C107.41 23.9463 107.138 24 106.844 24H101.161C100.875 24 100.603 23.9463 100.345 23.8389C100.087 23.7243 99.8616 23.5739 99.6682 23.3877C99.482 23.1943 99.3317 22.9688 99.2171 22.7109C99.1096 22.4531 99.0559 22.1774 99.0559 21.8838V14.6758C99.0559 14.3822 99.1096 14.1064 99.2171 13.8486C99.3317 13.5908 99.482 13.3688 99.6682 13.1826C99.8616 12.9893 100.087 12.8389 100.345 12.7314C100.603 12.6169 100.875 12.5596 101.161 12.5596H106.844C107.138 12.5596 107.41 12.6169 107.66 12.7314C107.918 12.8389 108.14 12.9893 108.326 13.1826C108.52 13.3688 108.67 13.5908 108.778 13.8486C108.892 14.1064 108.949 14.3822 108.949 14.6758V21.8838ZM101.161 14.6758V21.8838H106.844V14.6758H101.161Z" fill="#2C2C2C"/>
<rect width="28" height="28" rx="7" fill="#71BD8C"/>
<circle cx="7" cy="7" r="5" fill="#2C2C2C"/>
<circle cx="7" cy="21" r="5" fill="white"/>
<circle cx="21" cy="7" r="5" fill="white"/>
<circle cx="21" cy="21" r="5" fill="#2C2C2C"/>
<path d="M2 14L26 14" stroke="#3E704F" stroke-linecap="round"/>
<path d="M14 2L14 26" stroke="#3E704F" stroke-linecap="round"/>
</svg>
