<?xml version="1.0" encoding="utf-8"?>
<!-- Generator: Adobe Illustrator 15.0.0, SVG Export Plug-In . SVG Version: 6.00 Build 0)  -->
<!DOCTYPE svg PUBLIC "-//W3C//DTD SVG 1.1//EN" "http://www.w3.org/Graphics/SVG/1.1/DTD/svg11.dtd">
<svg version="1.1" id="Layer_1" xmlns="http://www.w3.org/2000/svg" xmlns:xlink="http://www.w3.org/1999/xlink" x="0px" y="0px"
	 width="28.346px" height="28.346px" viewBox="0 0 28.346 28.346" enable-background="new 0 0 28.346 28.346" xml:space="preserve">
<path fill="none" stroke="#333333" stroke-width="2" stroke-linecap="round" stroke-linejoin="round" stroke-miterlimit="10" d="
	M1.36,17.932c0-7.128,5.778-12.905,12.905-12.905c7.127,0,12.905,5.777,12.905,12.905"/>
<g>
	<g>
		<path fill="#333333" d="M14.264,9.032c-3.944,0-7.144,3.199-7.144,7.145c0,3.944,3.2,7.143,7.144,7.143
			c3.946,0,7.144-3.198,7.144-7.143C21.408,12.231,18.21,9.032,14.264,9.032L14.264,9.032z M14.264,19.323
			c-1.739,0-3.147-1.41-3.147-3.147c0-1.738,1.409-3.148,3.147-3.148c0.26,0,0.511,0.036,0.752,0.095
			c-0.255,0.305-0.407,0.697-0.407,1.125c0,0.972,0.788,1.759,1.76,1.759c0.372,0,0.717-0.116,1.002-0.314
			c0.024,0.159,0.041,0.319,0.041,0.483C17.412,17.913,16.003,19.323,14.264,19.323L14.264,19.323z"/>
	</g>
</g>
</svg>
